<?xml version="1.0" standalone="no"?><!DOCTYPE svg PUBLIC "-//W3C//DTD SVG 1.1//EN" "http://www.w3.org/Graphics/SVG/1.1/DTD/svg11.dtd"><svg t="1678326809115" class="icon" viewBox="0 0 1024 1024" version="1.1" xmlns="http://www.w3.org/2000/svg" p-id="6891" xmlns:xlink="http://www.w3.org/1999/xlink" width="128" height="128"><path d="M871.4 930.3c0 27.3-84 3.5-123 16.1-18.6 5.9-67.7 12.8-90.5 12.8-37.2 0-87-5.1-110.4-19.6-21.1-13.1-123.1-3-123.1-22.2 0-24.2 164.4-3.1 196.2-16.4 21.2-8.9 39.8-33.6 68-33.6 26 0-2.9 15.6 17.3 23.2 34.6 13 165.5 14.1 165.5 39.7z" p-id="6892"></path><path d="M369.6 309c10-7.3 23.2-17.6 39.7-30.9-6.6-48.7-6.6-84.4 0-107.1 14-48 56.5-85.3 83.5-96.8 26.9-11.5 85.8-15.8 123 0s49.1 24 67.5 60.4c12.3 24.3 11.1 66.6-3.5 126.9-7.2 17-13.3 32.9-18.3 47.5-7.6 22-37.6 28.8-39.1 37.8-1.6 9 38.7-28.5 79.3 0 40.6 28.5 52.8 96.6 47.7 142.5s-13.1 70.2-33.6 118-30 58-64.4 133.6c-34.4 75.6-23.8 66.1-16.8 74.5 7.1 8.4 38.6 30.4 26.8 63.8-11.7 33.4-97.6 31.9-129.5 31.9s-69-21.8-69-39.7c0-12 13.4-41.9 40.2-89.9-5.8 9.8-13.5 21.1-23.2 33.9-14.5 19.2-20.9 41.8-66.6 69.5-45.7 27.7-113.8 58.1-178.8 26.2s-64.9-128.6-64.9-179.7 20-168 46.1-224.9C247.7 436.9 318 347 369.6 309z m278.1 60.7c-13-1.7-25.1 0.5-36.9 5.9l-81.6-3.8c-16.5-0.7 13.3-39.5 16.3-43.8 6.9-9.8 24.5 24.6 39.1 21.8 10-1.9 12.3-18.9 28.3-22-0.7-5.9-23.9-13.1-23.9-13.1s22.7 8.3 29 5.6c4.7-5.9 4.2-15.6 8.1-21.8 4.8-3.5 12.1 11.3 15.5 2.3 8.3-21.9-3-32.8 5.9-47.3 25.1-40.7 25.6-128.5-59.2-149.1-113-27.4-183.7 66.2-145.5 186.3 4.7 14.7-114.9 77.7-166.3 177.5-85.4 165.8-98.2 396.2-14.3 410.5 127.4 21.6 226.2-87.3 312.1-260.5 0 0-63.6 224.4-78.8 238-2.7 2.5-4.3 6-4.3 9.2 0 14.9 32 19.5 71.5 19.5s71.5-4.6 71.5-19.5c0-5.9-5.1-11.4-13.8-15.9 2.2-2.4 4.4-11.9-45.3-29.7L683 581.6c57.2-106.6 35.7-202.5-35.3-211.9zM408.5 661.2c9.8-32.7 45.3-86.2 114.4-190.9l41.6-27.5c-49.3 70.3-99.5 150.6-156 218.4z" p-id="6893"></path></svg>