<?xml version="1.0" standalone="no"?><!DOCTYPE svg PUBLIC "-//W3C//DTD SVG 1.1//EN" "http://www.w3.org/Graphics/SVG/1.1/DTD/svg11.dtd"><svg t="1686552532990" class="icon" viewBox="0 0 1024 1024" version="1.1" xmlns="http://www.w3.org/2000/svg" p-id="5303" xmlns:xlink="http://www.w3.org/1999/xlink" width="128" height="128"><path d="M411.128358 923.128358h-119.21194c-15.283582 0-27.510448 12.226866-27.510448 27.510448s12.226866 27.510448 27.510448 27.510448h438.638806c15.283582 0 27.510448-12.226866 27.510448-27.510448s-12.226866-27.510448-27.510448-27.510448h-119.21194v-119.21194c0-15.283582-12.226866-27.510448-27.510448-27.510448s-27.510448 12.226866-27.510448 27.510448v119.21194h-91.701492v-119.21194c0-15.283582-12.226866-27.510448-27.510448-27.510448s-27.510448 12.226866-27.510448 27.510448l1.528358 119.21194z m0 0"  p-id="5304"></path><path d="M976.620896 110.041791c0-35.152239-29.038806-64.191045-64.191045-64.191045H110.041791C74.889552 45.850746 45.850746 74.889552 45.850746 110.041791v657.19403c0 35.152239 29.038806 64.191045 64.191045 64.191045h803.916418c35.152239 0 64.191045-29.038806 64.191045-64.191045v-657.19403z m-53.492538 666.364179H100.871642V100.871642h822.256716v675.534328z m0 0"  p-id="5305"></path><path d="M913.958209 836.01194H110.041791c-38.208955 0-68.776119-30.567164-68.776119-68.776119v-657.19403c0-38.208955 30.567164-68.776119 68.776119-68.776119h803.916418c38.208955 0 68.776119 30.567164 68.776119 68.776119v657.19403c0 38.208955-32.095522 68.776119-68.776119 68.776119zM110.041791 51.964179c-32.095522 0-58.077612 25.98209-58.077612 58.077612v657.19403c0 32.095522 25.98209 58.077612 58.077612 58.077612h803.916418c32.095522 0 58.077612-25.98209 58.077612-58.077612v-657.19403c0-32.095522-25.98209-58.077612-58.077612-58.077612H110.041791z m817.671642 730.555224H94.758209v-687.761194h834.483582v687.761194z m-822.256717-10.698507h811.558209V106.985075H105.456716v664.835821z"  p-id="5306"></path><path d="M560.907463 299.558209l-146.722388 252.179104c-7.641791 12.226866-3.056716 29.038806 10.698507 36.680597 12.226866 7.641791 29.038806 3.056716 36.680597-9.170149l146.722388-252.179104c3.056716-6.113433 4.585075-13.755224 3.056717-21.397015-1.528358-7.641791-6.113433-12.226866-12.226866-16.811941-4.585075-3.056716-9.170149-3.056716-13.755224-3.056716-10.698507 0-19.868657 4.585075-24.453731 13.755224z m-356.107463 102.4c-1.528358 1.528358-3.056716 3.056716-4.585075 3.056716-4.585075 4.585075-7.641791 12.226866-7.641791 19.868657v1.528358c0 7.641791 3.056716 13.755224 7.641791 19.868657l4.585075 4.585075 1.528358 1.528358 97.814926 97.814925c4.585075 4.585075 12.226866 7.641791 18.340298 7.641791 7.641791 0 13.755224-3.056716 18.340299-7.641791 10.698507-10.698507 10.698507-27.510448 0-38.208955L256.764179 427.940299l84.059702-84.059702c10.698507-10.698507 10.698507-27.510448 0-38.208955-4.585075-4.585075-12.226866-7.641791-19.868657-7.641791s-13.755224 3.056716-19.868657 7.641791l-96.286567 96.286567zM822.256716 458.507463c4.585075-4.585075 7.641791-10.698507 7.641791-16.811941v-3.056716c0-7.641791-3.056716-13.755224-7.641791-19.868657-1.528358-1.528358-3.056716-3.056716-4.585074-3.056716h-1.528358l-97.814926-97.814926c-4.585075-4.585075-12.226866-7.641791-18.340298-7.641791-7.641791 0-13.755224 3.056716-19.868657 7.641791-4.585075 4.585075-7.641791 12.226866-7.641791 19.868657s3.056716 13.755224 7.641791 19.868657l84.059701 84.059701-84.059701 84.059702c-4.585075 4.585075-7.641791 12.226866-7.641791 19.868657s3.056716 13.755224 7.641791 19.868656c4.585075 4.585075 12.226866 7.641791 19.868657 7.641791s13.755224-3.056716 19.868656-7.641791l97.814926-97.814925c1.528358-6.113433 3.056716-7.641791 4.585074-9.170149z m0 0"  p-id="5307"></path></svg>