<?xml version="1.0" standalone="no"?><!DOCTYPE svg PUBLIC "-//W3C//DTD SVG 1.1//EN" "http://www.w3.org/Graphics/SVG/1.1/DTD/svg11.dtd"><svg t="1676883731933" class="icon" viewBox="0 0 1024 1024" version="1.1" xmlns="http://www.w3.org/2000/svg" p-id="10236" xmlns:xlink="http://www.w3.org/1999/xlink" width="128" height="128"><path d="M188 226c-16.569 0-30 13.431-30 30v580c0 16.569 13.431 30 30 30h648c16.569 0 30-13.431 30-30V256c0-16.569-13.431-30-30-30H188z m0-60h648c49.706 0 90 40.294 90 90v580c0 49.706-40.294 90-90 90H188c-49.706 0-90-40.294-90-90V256c0-49.706 40.294-90 90-90z" p-id="10237"></path><path d="M98 452.5v-60h828v60zM317 602.5c-16.569 0-30-13.431-30-30 0-16.569 13.431-30 30-30h30c16.569 0 30 13.431 30 30 0 16.569-13.431 30-30 30h-30zM497 602.5c-16.569 0-30-13.431-30-30 0-16.569 13.431-30 30-30h30c16.569 0 30 13.431 30 30 0 16.569-13.431 30-30 30h-30zM677 602.5c-16.569 0-30-13.431-30-30 0-16.569 13.431-30 30-30h30c16.569 0 30 13.431 30 30 0 16.569-13.431 30-30 30h-30zM317 733.5c-16.569 0-30-13.431-30-30 0-16.569 13.431-30 30-30h30c16.569 0 30 13.431 30 30 0 16.569-13.431 30-30 30h-30zM497 733.5c-16.569 0-30-13.431-30-30 0-16.569 13.431-30 30-30h30c16.569 0 30 13.431 30 30 0 16.569-13.431 30-30 30h-30zM677 733.5c-16.569 0-30-13.431-30-30 0-16.569 13.431-30 30-30h30c16.569 0 30 13.431 30 30 0 16.569-13.431 30-30 30h-30zM268.25 128.083c-0.046-16.568 13.348-30.037 29.917-30.083 16.568-0.046 30.037 13.348 30.083 29.917l0.5 180c0.046 16.568-13.348 30.037-29.917 30.083-16.568 0.046-30.037-13.348-30.083-29.917l-0.5-180zM696.5 128c0-16.569 13.431-30 30-30 16.569 0 30 13.431 30 30v180c0 16.569-13.431 30-30 30-16.569 0-30-13.431-30-30V128z" p-id="10238"></path></svg>