<?xml version="1.0" standalone="no"?><!DOCTYPE svg PUBLIC "-//W3C//DTD SVG 1.1//EN" "http://www.w3.org/Graphics/SVG/1.1/DTD/svg11.dtd"><svg t="1677153202161" class="icon" viewBox="0 0 1024 1024" version="1.1" xmlns="http://www.w3.org/2000/svg" p-id="4999" xmlns:xlink="http://www.w3.org/1999/xlink" width="128" height="128"><path d="M846.933333 125.866667H183.466667c-46.933333 0-85.333333 38.4-85.333334 85.333333v490.666667c0 46.933333 38.4 85.333333 85.333334 85.333333h102.4c12.8 0 21.333333-8.533333 21.333333-21.333333s-8.533333-21.333333-21.333333-21.333334H183.466667c-23.466667 0-42.666667-19.2-42.666667-42.666666v-490.666667c0-23.466667 19.2-42.666667 42.666667-42.666667h663.466666c23.466667 0 42.666667 19.2 42.666667 42.666667v490.666667c0 23.466667-19.2 42.666667-42.666667 42.666666h-204.8-2.133333-2.133333c-4.266667 0-10.666667 2.133333-14.933334 4.266667l-106.666666 93.866667-106.666667-93.866667c-4.266667-4.266667-8.533333-6.4-14.933333-6.4-6.4 0-10.666667 2.133333-14.933334 6.4-8.533333 8.533333-6.4 21.333333 2.133334 29.866667l119.466666 106.666666c4.266667 4.266667 8.533333 6.4 14.933334 6.4 4.266667 0 10.666667-2.133333 14.933333-6.4l115.2-102.4h202.666667c46.933333 0 85.333333-38.4 85.333333-85.333333v-490.666667c-2.133333-42.666667-40.533333-81.066667-87.466667-81.066666z" p-id="5000"></path><path d="M326.4 439.466667c-19.2 0-36.266667 17.066667-36.266667 36.266666 0 19.2 17.066667 36.266667 36.266667 36.266667 19.2 0 36.266667-17.066667 36.266667-36.266667 0-21.333333-14.933333-36.266667-36.266667-36.266666zM514.133333 439.466667c-19.2 0-36.266667 17.066667-36.266666 36.266666 0 19.2 17.066667 36.266667 36.266666 36.266667s36.266667-17.066667 36.266667-36.266667c0-21.333333-17.066667-36.266667-36.266667-36.266666zM701.866667 439.466667c-19.2 0-36.266667 17.066667-36.266667 36.266666 0 19.2 17.066667 36.266667 36.266667 36.266667 19.2 0 36.266667-17.066667 36.266666-36.266667 0-21.333333-17.066667-36.266667-36.266666-36.266666z" p-id="5001"></path></svg>