<?xml version="1.0" standalone="no"?><!DOCTYPE svg PUBLIC "-//W3C//DTD SVG 1.1//EN" "http://www.w3.org/Graphics/SVG/1.1/DTD/svg11.dtd"><svg t="1677145665515" class="icon" viewBox="0 0 1024 1024" version="1.1" xmlns="http://www.w3.org/2000/svg" p-id="5864" xmlns:xlink="http://www.w3.org/1999/xlink" width="128" height="128"><path d="M179.810691 326.456834h724.678491v-102.569388H119.508271v102.569388h60.30242zM321.591682 17.666108h380.247337c22.708291 0 41.330872 17.015298 41.330872 37.791537v92.299077h202.082138c22.680272 0 41.330872 17.289122 41.330872 38.065362v178.940822c0 21.051337-18.650601 37.81701-41.330872 37.81701h-60.576245v565.706445c0 20.777513-18.058377 38.066635-41.329599 38.066635h-663.545683c-22.438288 0-41.060869-17.289122-41.060869-38.066635V402.582463h-60.534215c-22.733763 0-40.792139-16.765672-40.79214-37.817009v-178.940823c0-20.776239 18.058377-38.065362 40.79214-38.065361h202.646342V55.457645c0-20.776239 18.031631-37.791538 40.739922-37.791537z m339.213213 75.856899H362.921281v47.781657h297.883614V93.523007zM365.850561 402.582463v439.947345c0 12.929589-11.366881 22.94518-25.045347 22.94518-13.38299 0-24.453123-10.015592-24.453123-22.94518V402.582463h-95.507276v527.638536h581.444322V402.582463h-95.235999v439.947345c0 12.929589-11.31339 22.94518-24.723126 22.94518-13.705211 0-24.749872-10.015592-24.749872-22.94518V402.582463h-121.41103v439.947345c0 12.929589-10.749185 22.94518-24.749872 22.94518-12.817512 0-24.453123-10.015592-24.453123-22.94518V402.582463h-121.119375z" p-id="5865"></path></svg>