<?xml version="1.0" standalone="no"?><!DOCTYPE svg PUBLIC "-//W3C//DTD SVG 1.1//EN" "http://www.w3.org/Graphics/SVG/1.1/DTD/svg11.dtd"><svg t="1679554107336" class="icon" viewBox="0 0 1204 1024" version="1.1" xmlns="http://www.w3.org/2000/svg" p-id="7750" xmlns:xlink="http://www.w3.org/1999/xlink" width="150.5" height="128"><path d="M1153.807059 0v146.281412c-47.465412 25.057882-83.064471 70.174118-106.797177 135.408941-23.762824 65.234824-35.629176 151.220706-35.629176 257.987765v45.477647H1204.705882V1024H752.941176V695.838118c0-198.987294 33.249882-356.472471 99.689412-472.45553 66.499765-115.952941 166.881882-190.433882 301.176471-223.382588z m-752.941177 0v146.281412c-47.465412 25.057882-83.064471 70.174118-106.797176 135.408941-23.762824 65.234824-35.629176 151.220706-35.629177 257.987765v45.477647H451.764706V1024H0V695.838118c0-198.987294 33.249882-356.472471 99.689412-472.45553 66.499765-115.952941 166.881882-190.433882 301.17647-223.382588z" fill="#CCD0D4" fill-opacity=".5" opacity=".748" p-id="7751"></path></svg>