<?xml version="1.0" standalone="no"?><!DOCTYPE svg PUBLIC "-//W3C//DTD SVG 1.1//EN" "http://www.w3.org/Graphics/SVG/1.1/DTD/svg11.dtd"><svg t="1676889353565" class="icon" viewBox="0 0 1024 1024" version="1.1" xmlns="http://www.w3.org/2000/svg" p-id="10122" xmlns:xlink="http://www.w3.org/1999/xlink" width="128" height="128"><path d="M327.555021 554.873294h-100.327521c-18.393379 0-33.442507 15.049128-33.442506 33.442506v214.204033c0 18.393379 15.049128 33.442507 33.442506 33.442507h133.770027V588.3158c0-18.393379-15.046739-33.442507-33.442506-33.442506z" fill="#4A5159" p-id="10123"></path><path d="M339.300507 813.271599v22.690741h21.69702v-44.39015a21.699409 21.699409 0 0 0-21.69702 21.699409z" fill="#A4A9AD" p-id="10124"></path><path d="M329.188926 747.791171a7.061146 7.061146 0 0 0 0 14.119904h31.808601v-14.119904h-31.808601z" fill="#7D868C" p-id="10125"></path><path d="M659.646278 554.873294h-100.32752c-18.393379 0-33.442507 15.049128-33.442506 33.442506v214.204033c0 18.393379 15.049128 33.442507 33.442506 33.442507h133.770027V588.3158c0-18.393379-15.046739-33.442507-33.442507-33.442506z" fill="#4A5159" p-id="10126"></path><path d="M671.391764 813.271599v22.690741h21.697021v-44.39015a21.699409 21.699409 0 0 0-21.697021 21.699409z" fill="#A4A9AD" p-id="10127"></path><path d="M661.280184 747.791171a7.061146 7.061146 0 0 0 0 14.119904h31.808601v-14.119904h-31.808601z" fill="#7D868C" p-id="10128"></path><path d="M10.749377 431.293676a10.749377 10.749377 0 0 1-10.749377-10.749377c0-79.633775 64.78769-144.421465 144.419076-144.421465a10.749377 10.749377 0 0 1 0 21.498754C76.64067 297.621588 21.498754 352.763504 21.498754 420.544299a10.749377 10.749377 0 0 1-10.749377 10.749377z" fill="#5C6670" p-id="10129"></path><path d="M461.105282 188.462858h-137.133387c-145.778275 0-263.956928 118.178652-263.956928 263.956928s118.178652 263.956928 263.956928 263.956927h137.133387c145.778275 0 263.956928-118.178652 263.956928-263.956927s-118.176264-263.956928-263.956928-263.956928z" fill="#5C6670" p-id="10130"></path><path d="M265.447508 554.873294h-100.32752c-18.393379 0-33.442507 15.049128-33.442507 33.442506v214.204033c0 18.393379 15.049128 33.442507 33.442507 33.442507h133.770027V588.3158c0-18.393379-15.046739-33.442507-33.442507-33.442506z" fill="#5C6670" p-id="10131"></path><path d="M277.192994 813.271599v22.690741h21.697021v-44.39015a21.699409 21.699409 0 0 0-21.697021 21.699409z" fill="#A4A9AD" p-id="10132"></path><path d="M267.081413 747.791171a7.061146 7.061146 0 0 0 0 14.119904h31.808602v-14.119904h-31.808602z" fill="#7D868C" p-id="10133"></path><path d="M597.538766 554.873294h-100.32752c-18.393379 0-33.442507 15.049128-33.442507 33.442506v214.204033c0 18.393379 15.049128 33.442507 33.442507 33.442507h133.770027V588.3158c0-18.393379-15.046739-33.442507-33.442507-33.442506z" fill="#5C6670" p-id="10134"></path><path d="M609.284252 813.271599v22.690741h21.697021v-44.39015a21.699409 21.699409 0 0 0-21.697021 21.699409z" fill="#A4A9AD" p-id="10135"></path><path d="M599.172671 747.791171a7.061146 7.061146 0 0 0 0 14.119904h31.808602v-14.119904h-31.808602z" fill="#7D868C" p-id="10136"></path><path d="M984.585617 532.591029c-21.768683 0-39.414383 17.648089-39.414383 39.414383 0 26.78267-21.790182 48.570463-48.570463 48.570463s-48.570463-21.787793-48.570464-48.570463v-142.892665c0.274706-3.392026 0.451474-6.810328 0.451474-10.271627v-65.36099c0-52.531012-32.207523-97.520738-77.942539-116.356036-23.003667-29.84266-59.080966-49.086434-99.675391-49.086434h-65.360991c-69.481585 0-125.808321 56.324348-125.808321 125.808322v230.80346h242.978921a125.471508 125.471508 0 0 0 46.528081-8.921983v36.280342c0 70.248374 57.150855 127.399229 127.39923 127.399229 70.248374 0 127.399229-57.150855 127.399229-127.399229 0-21.768683-17.6457-39.416772-39.414383-39.416772z" fill="#5C6670" p-id="10137"></path><path d="M808.615924 469.640288a7.061146 7.061146 0 0 0 7.061147 7.061146h31.808601v-14.122293h-31.808601a7.061146 7.061146 0 0 0-7.061147 7.061147z m0 93.653351a7.058758 7.058758 0 0 0 7.061147 7.058758h31.808601v-14.117516h-31.808601a7.058758 7.058758 0 0 0-7.061147 7.058758z m7.058758-147.538785a7.061146 7.061146 0 0 0 0 14.119905h31.808601v-14.119905h-31.808601z m-7.058758 100.712109a7.058758 7.058758 0 0 0 7.061147 7.058758h31.808601v-14.117515h-31.808601a7.058758 7.058758 0 0 0-7.061147 7.058757z" fill="#7D868C" p-id="10138"></path><path d="M876.172177 644.250781h-33.184522c-65.638086 0-119.038603-53.400517-119.038603-119.038602 0-17.151228 13.902528-31.053756 31.053757-31.053756s31.053756 13.902528 31.053756 31.053756c0 31.392959 25.538131 56.93109 56.93109 56.93109h33.184522c17.151228 0 31.053756 13.902528 31.053756 31.053756s-13.902528 31.053756-31.053756 31.053756z" fill="#FADF8D" p-id="10139"></path><path d="M749.766668 349.682016m-17.617035 0a17.617035 17.617035 0 1 0 35.234069 0 17.617035 17.617035 0 1 0-35.234069 0Z" fill="#333E48" p-id="10140"></path><path d="M421.530853 458.680701c-0.002389 47.108548 38.184176 85.292725 85.292725 85.292724 47.103771 0 85.290336-38.186565 85.287947-85.292724l0.002389-217.500509c-94.207541 0-170.580672 76.37313-170.580672 170.578283l-0.002389 46.922226z" fill="#A4A9AD" p-id="10141"></path></svg>