<?xml version="1.0" standalone="no"?><!DOCTYPE svg PUBLIC "-//W3C//DTD SVG 1.1//EN" "http://www.w3.org/Graphics/SVG/1.1/DTD/svg11.dtd"><svg t="1678263855829" class="icon" viewBox="0 0 1024 1024" version="1.1" xmlns="http://www.w3.org/2000/svg" p-id="5186" xmlns:xlink="http://www.w3.org/1999/xlink" width="128" height="128"><path d="M512 53.248c129.707008 3.412992 237.739008 48.299008 324.096 134.656S967.339008 382.292992 970.752 512c-3.412992 129.707008-48.299008 237.739008-134.656 324.096S641.707008 967.339008 512 970.752c-129.707008-3.412992-237.739008-48.299008-324.096-134.656S56.660992 641.707008 53.248 512c3.412992-129.707008 48.299008-237.739008 134.656-324.096S382.292992 56.660992 512 53.248z m0 403.456L405.504 350.208c-8.192-8.192-17.579008-12.288-28.16-12.288-10.580992 0-19.796992 3.924992-27.648 11.776-7.851008 7.851008-11.776 17.067008-11.776 27.648 0 10.580992 4.096 19.968 12.288 28.16l106.496 106.496-106.496 106.496c-8.192 8.192-12.288 17.579008-12.288 28.16 0 10.580992 3.924992 19.796992 11.776 27.648 7.851008 7.851008 17.067008 11.776 27.648 11.776 10.580992 0 19.968-4.096 28.16-12.288l106.496-106.496 106.496 106.496c10.923008 10.24 23.552 13.483008 37.888 9.728s23.380992-12.8 27.136-27.136c3.755008-14.336 0.512-26.964992-9.728-37.888L567.296 512l106.496-106.496c8.192-8.192 12.288-17.579008 12.288-28.16 0-10.580992-3.924992-19.796992-11.776-27.648-7.851008-7.851008-17.067008-11.776-27.648-11.776-10.580992 0-19.968 4.096-28.16 12.288L512 456.704z" p-id="5187"></path></svg>