<?xml version="1.0" standalone="no"?><!DOCTYPE svg PUBLIC "-//W3C//DTD SVG 1.1//EN" "http://www.w3.org/Graphics/SVG/1.1/DTD/svg11.dtd"><svg t="1683342308332" class="icon" viewBox="0 0 1024 1024" version="1.1" xmlns="http://www.w3.org/2000/svg" p-id="26449" xmlns:xlink="http://www.w3.org/1999/xlink" width="128" height="128"><path d="M328.7552 884.5312c-18.3296 0-36.5056-5.7344-52.0704-17.0496-27.4944-19.968-41.0112-53.248-35.2768-86.7328l22.4256-130.6624c2.7648-16.1792-2.56-32.7168-14.336-44.1856l-94.9248-92.5696c-24.3712-23.7568-32.9728-58.5728-22.4256-90.9312s37.9392-55.4496 71.5776-60.3648L334.8992 343.04a50.01216 50.01216 0 0 0 37.5808-27.2896L431.104 196.8128c15.0528-30.5152 45.5168-49.4592 79.5648-49.4592s64.4608 18.944 79.5136 49.4592l58.6752 118.8864a49.80224 49.80224 0 0 0 37.5808 27.2896l131.1744 19.0464c33.6384 4.9152 61.0816 28.0064 71.5776 60.3648s1.8944 67.1744-22.4256 90.9312l-94.9248 92.5696a49.7408 49.7408 0 0 0-14.336 44.1856l22.4256 130.6624c5.7344 33.536-7.7824 66.7648-35.2768 86.7328-27.4944 19.968-63.2832 22.5792-93.3888 6.7584l-117.3504-61.696a49.9712 49.9712 0 0 0-46.4384 0l-117.3504 61.696a89.1648 89.1648 0 0 1-41.3696 10.2912zM510.6688 208.8448c-5.12 0-17.664 1.4848-24.4224 15.2064L427.5712 342.8864a111.37024 111.37024 0 0 1-83.8144 60.928l-131.2256 19.0464c-15.104 2.2016-20.4288 13.7216-22.016 18.5344s-4.0448 17.2544 6.912 27.9552l94.9248 92.5184c26.2656 25.6 38.1952 62.4128 32 98.56l-22.4256 130.6624c-2.6112 15.0528 6.7072 23.6544 10.8544 26.6752s15.1552 9.1648 28.7232 2.0992l117.3504-61.696c32.4608-17.0496 71.168-17.0496 103.6288 0l117.3504 61.696c13.5168 7.1168 24.576 0.9216 28.7232-2.0992s13.4144-11.5712 10.8544-26.6752L696.9344 660.48a111.4112 111.4112 0 0 1 32-98.56l94.9248-92.5184c10.9568-10.6496 8.448-23.0912 6.912-27.9552s-6.8608-16.3328-22.016-18.5344l-131.1744-19.0464a111.2832 111.2832 0 0 1-83.8144-60.928l-58.6752-118.8864c-6.7584-13.7216-19.3536-15.2064-24.4224-15.2064z" p-id="26450"></path><path d="M659.2 512.3072c-1.536 0-3.1232-0.1024-4.7104-0.3584l-56.9856-8.7552a95.872 95.872 0 0 1-69.632-48.4352l-28.8768-51.8656a30.73024 30.73024 0 0 1 11.8784-41.7792c14.848-8.2432 33.536-2.9184 41.7792 11.8784l28.8768 51.8656a35.01568 35.01568 0 0 0 25.2928 17.6128l56.9856 8.7552c16.7936 2.56 28.2624 18.2784 25.7024 35.0208a30.72 30.72 0 0 1-30.3104 26.0608z" fill="#45CFFF" p-id="26451"></path></svg>