<?xml version="1.0" standalone="no"?><!DOCTYPE svg PUBLIC "-//W3C//DTD SVG 1.1//EN" "http://www.w3.org/Graphics/SVG/1.1/DTD/svg11.dtd"><svg t="1676894549768" class="icon" viewBox="0 0 1024 1024" version="1.1" xmlns="http://www.w3.org/2000/svg" p-id="5886" xmlns:xlink="http://www.w3.org/1999/xlink" width="128" height="128"><path d="M983.76376394 628.04227873L761.47652379 405.75503855v-146.59369492c0-18.27491891-14.8169498-33.07615783-33.07772894-33.07615785-18.29220092 0-33.09186874 14.79966783-33.09186875 33.07615785v80.45551906l-156.82620411-156.82620412c-12.8860802-12.91750201-33.84913411-12.91750201-46.7352143 0L46.47817663 628.04384979c-12.91750201 12.9190731-12.91750201 33.84913411 0 46.76820724 12.90336221 12.9190731 33.84913411 12.9190731 46.76820721 0l421.875372-421.87537201L936.99555674 674.81205703a33.18927631 33.18927631 0 0 0 23.40924105 9.70148075 32.98660571 32.98660571 0 0 0 23.35896615-9.70148075c12.91750201-12.93478401 12.91750201-33.84913411 0-46.76820724z" p-id="5887"></path><path d="M889.11816 665.99352883l-350.63743801-350.65157779a33.07458675 33.07458675 0 0 0-46.76820721 0l-350.60444508 350.65157779a32.91119339 32.91119339 0 0 0-9.09032676 17.08560379 79.91192193 79.91192193 0 0 0-1.4626848 15.15473415v171.14354733c0 44.06593241 35.86012932 79.97319442 79.94020154 79.97319442h171.12783642c22.16807995 0 43.55061489-9.36369643 58.64093435-25.72345662 13.73918207-14.8499427 21.30083826-34.10836396 21.30083828-54.26544871v-125.67934478c0-30.50271239 23.37467707-55.98579227 53.57259801-58.84988934 30.21206077 2.86409708 53.58988001 28.34717694 53.58987999 58.84988934v125.67934478c0 20.14137383 7.59307798 39.41550599 21.29926717 54.26544871 15.09031949 16.36133131 36.50427623 25.72345661 58.65664528 25.72345662h171.14354731c44.08164332 0 79.95748354-35.86012932 79.95748353-79.98890533V698.28414166c0-5.01963257-0.49803553-10.13510162-1.47996679-15.15473416a33.25054883 33.25054883 0 0 0-9.18616323-17.13430757z" p-id="5888"></path></svg>