<?xml version="1.0" standalone="no"?><!DOCTYPE svg PUBLIC "-//W3C//DTD SVG 1.1//EN" "http://www.w3.org/Graphics/SVG/1.1/DTD/svg11.dtd"><svg t="1677910946086" class="icon" viewBox="0 0 1024 1024" version="1.1" xmlns="http://www.w3.org/2000/svg" p-id="5927" xmlns:xlink="http://www.w3.org/1999/xlink" width="128" height="128"><path d="M704 460m-32 0a32 32 0 1 0 64 0 32 32 0 1 0-64 0Z" p-id="5928"></path><path d="M816 940H208a96 96 0 0 1-96-96v-320a96 96 0 0 1 96-96h384a32 32 0 0 1 0 64H208a32 32 0 0 0-32 32v320a32 32 0 0 0 32 32h608a32 32 0 0 0 32-32v-320a32 32 0 0 0-32-32 32 32 0 0 1 0-64 96 96 0 0 1 96 96v320a96 96 0 0 1-96 96z" p-id="5929"></path><path d="M272 492a32 32 0 0 1-32-32v-120a256 256 0 0 1 512 0v24a32 32 0 0 1-64 0v-24a192 192 0 0 0-384 0v120a32 32 0 0 1-32 32zM512 764a112 112 0 1 1 112-112 112 112 0 0 1-112 112z m0-160a48 48 0 1 0 48 48 48 48 0 0 0-48-48z" p-id="5930"></path><path d="M512 828a32 32 0 0 1-32-32v-64a32 32 0 0 1 64 0v64a32 32 0 0 1-32 32z" p-id="5931"></path></svg>