<svg version="1.0" xmlns="http://www.w3.org/2000/svg" xmlns:xlink="http://www.w3.org/1999/xlink" width="100%" height="100%" viewBox="0 0 300.000000 250.000000" preserveAspectRatio="xMidYMid meet" color-interpolation-filters="sRGB"><g  transform="translate(78.53990173339844,89.71585464477539)"><g  opacity="1"><g  transform="translate(0, 0)" mask="url(#8127490d-8c5e-4f19-af88-d66430c53bf3)"><polyline data-gra="graph-name" fill-opacity="1" x="0" y="0" width="38.419341773986815" height="46.56828972311581" points="0,0 38.419341773986815,12 38.419341773986815,58.56828972311581 0,70.56828972311581 0,12"></polyline> </g><g transform="translate(42.419341773986815, 0)"><g data-gra="path-name" transform="translate(0,15)"><g transform="scale(1)"><path d="M17.59-37.08L17.59-37.08Q18.36-37.35 18.68-36.81Q18.99-36.27 19.04-34.42L19.04-34.42Q19.13-32.89 19.26-32.06Q19.39-31.23 20.05-30.87Q20.70-30.51 22.21-30.42Q23.71-30.33 26.46-30.29L26.46-30.29Q28.44-30.24 29.38-30.17Q30.33-30.11 30.67-29.92Q31.00-29.74 31.05-29.34L31.05-29.34Q31.23-28.66 30.44-28.46Q29.65-28.26 27-28.17L27-28.17Q24.07-28.13 22.48-28.01Q20.88-27.90 20.18-27.54Q19.48-27.18 19.33-26.41Q19.17-25.65 19.13-24.21L19.13-24.21Q19.13-22.54 19.26-21.60Q19.39-20.65 20.07-20.23Q20.75-19.80 22.25-19.66Q23.76-19.53 26.41-19.48L26.41-19.48Q29.07-19.44 30.62-19.39Q32.17-19.35 32.94-19.24Q33.70-19.13 33.93-18.95Q34.16-18.77 34.20-18.45L34.20-18.45Q34.24-18 33.75-17.75Q33.25-17.50 31.59-17.41Q29.92-17.32 26.37-17.28L26.37-17.28Q23.40-17.23 21.51-17.14Q19.62-17.05 18.38-16.67Q17.14-16.29 16.20-15.37Q15.25-14.45 14.26-12.82Q13.28-11.21 11.79-8.59L11.79-8.59Q10.35-5.98 9.67-4.63Q9-3.28 9.49-2.83Q9.99-2.38 11.92-2.56Q13.86-2.75 17.64-3.19L17.64-3.19Q21.46-3.69 23.47-4.03Q25.47-4.37 25.99-5.02Q26.50-5.67 25.85-6.97Q25.20-8.28 23.67-10.66L23.67-10.66Q22.72-12.15 22.59-12.67Q22.45-13.18 22.90-13.50L22.90-13.50Q23.54-13.90 24.70-12.58Q25.88-11.25 27.86-7.92L27.86-7.92Q30.29-3.92 31.30-1.42Q32.31 1.08 31.68 1.57L31.68 1.57Q31.27 1.93 30.91 1.73Q30.55 1.53 29.88 0.54L29.88 0.54Q29.34-0.22 28.84-0.72Q28.35-1.21 27.56-1.44Q26.77-1.67 25.40-1.64Q24.03-1.62 21.78-1.42Q19.53-1.21 16.06-0.81L16.06-0.81Q11.56-0.27 9.16-0.11Q6.75 0.04 5.96-0.38Q5.17-0.81 5.67-2.05Q6.17-3.28 7.47-5.58L7.47-5.58Q7.83-6.17 8.32-7.04Q8.82-7.92 9.18-8.55L9.18-8.55Q11.03-11.74 11.92-13.52Q12.82-15.30 12.71-16.06Q12.60-16.83 11.41-17.03Q10.21-17.23 7.88-17.28L7.88-17.28Q5.13-17.32 3.85-17.39Q2.56-17.46 2.21-17.66Q1.84-17.86 1.80-18.27L1.80-18.27Q1.75-18.63 1.96-18.86Q2.16-19.08 2.92-19.19Q3.69-19.30 5.26-19.37Q6.84-19.44 9.58-19.48L9.58-19.48Q12.15-19.53 13.59-19.64Q15.03-19.75 15.71-20.14Q16.38-20.52 16.56-21.31Q16.74-22.09 16.79-23.49L16.79-23.49Q16.83-25.20 16.70-26.12Q16.56-27.04 15.88-27.45Q15.21-27.86 13.61-27.99Q12.01-28.13 9.13-28.17L9.13-28.17Q6.57-28.26 5.83-28.44Q5.08-28.62 5.08-29.20L5.08-29.20Q5.08-29.65 5.38-29.86Q5.67-30.06 6.61-30.15Q7.56-30.24 9.49-30.29L9.49-30.29Q12.20-30.33 13.66-30.42Q15.12-30.51 15.77-30.80Q16.43-31.09 16.61-31.79Q16.79-32.49 16.83-33.70L16.83-33.70Q16.92-35.19 16.96-35.84Q17.01-36.49 17.17-36.74Q17.32-36.99 17.59-37.08Z" transform="translate(-1.7918426513671872, 37.17529411764706)"></path></g></g></g><g transform="translate(78.83124820709227, 0)"><g data-gra="path-name" transform="translate(0,15)"><g transform="scale(1)"><path d="M11.43-37.08L11.43-37.08Q12.38-37.62 12.60-35.10L12.60-35.10Q12.64-34.65 12.67-33.21Q12.69-31.77 12.71-29.81Q12.73-27.86 12.73-25.83Q12.73-23.80 12.71-22.07Q12.69-20.34 12.64-19.35L12.64-19.35Q12.55-16.16 12.26-13.66Q11.97-11.16 11.47-9.07Q10.98-6.97 10.21-4.95L10.21-4.95Q9.54-3.15 8.66-1.48Q7.79 0.18 6.88 1.40Q5.98 2.61 5.26 3.13Q4.54 3.65 4.27 3.10L4.27 3.10Q4.14 2.79 4.39 2.21Q4.63 1.62 5.54-0.04L5.54-0.04Q6.79-2.25 7.67-4.23Q8.55-6.21 9.11-8.35Q9.67-10.48 9.99-13.07Q10.30-15.66 10.44-19.04Q10.57-22.41 10.57-26.95L10.57-26.95Q10.57-30.11 10.60-32.04Q10.62-33.98 10.73-35.01Q10.84-36.05 11.00-36.49Q11.16-36.95 11.43-37.08ZM20.16-33.44L20.16-33.44Q21.02-33.48 22.32-33.48Q23.63-33.48 25.00-33.46Q26.37-33.44 27.49-33.39Q28.62-33.34 29.11-33.30L29.11-33.30Q30.42-33.16 31.25-32.85Q32.09-32.53 32.58-31.54Q33.07-30.55 33.30-28.46Q33.52-26.37 33.57-22.75Q33.62-19.13 33.62-13.50L33.62-13.50Q33.62-8.28 33.57-5.11Q33.52-1.93 33.41-0.25Q33.30 1.44 33.07 2.09Q32.85 2.75 32.49 2.92L32.49 2.92Q32.04 3.10 31.84 2.88Q31.63 2.65 31.45 1.84L31.45 1.84Q31.27 0.94 31.03 0.47Q30.78 0 30.08-0.22Q29.38-0.45 27.95-0.52Q26.50-0.58 23.94-0.63L23.94-0.63Q21.38-0.67 19.87-0.72Q18.36-0.77 17.64-0.85Q16.92-0.94 16.67-1.13Q16.43-1.30 16.38-1.62L16.38-1.62Q16.29-2.07 16.65-2.29Q17.01-2.52 18.22-2.63Q19.44-2.75 21.87-2.79L21.87-2.79Q24.79-2.83 26.59-2.92Q28.39-3.01 29.41-3.35Q30.42-3.69 30.85-4.46Q31.27-5.22 31.34-6.59Q31.41-7.96 31.41-10.17L31.41-10.17Q31.41-12.82 31.25-14.31Q31.09-15.79 30.40-16.45Q29.70-17.10 28.06-17.26Q26.41-17.41 23.45-17.46L23.45-17.46Q21.11-17.50 19.96-17.59Q18.81-17.68 18.45-17.91Q18.09-18.13 18.09-18.54L18.09-18.54Q18.09-18.99 18.47-19.19Q18.86-19.39 20.07-19.48Q21.29-19.57 23.76-19.62L23.76-19.62Q26.55-19.66 28.08-19.80Q29.61-19.93 30.31-20.41Q31.00-20.88 31.18-21.89Q31.36-22.90 31.41-24.75L31.41-24.75Q31.45-27.04 31.32-28.35Q31.18-29.65 30.55-30.26Q29.92-30.87 28.55-31.07Q27.18-31.27 24.79-31.32L24.79-31.32Q22.18-31.36 20.68-31.41Q19.17-31.45 18.45-31.52Q17.73-31.59 17.48-31.72Q17.23-31.86 17.10-32.09L17.10-32.09Q16.79-32.71 17.50-33.05Q18.22-33.39 20.16-33.44ZM3.24-31.50L3.24-31.50Q3.69-31.68 3.94-31.43Q4.18-31.18 4.32-30.24Q4.46-29.29 4.50-27.34Q4.54-25.38 4.54-22.09L4.54-22.09Q4.54-19.04 4.52-17.17Q4.50-15.30 4.41-14.33Q4.32-13.37 4.12-13.03Q3.92-12.69 3.60-12.60L3.60-12.60Q3.19-12.55 2.95-12.82Q2.70-13.09 2.56-14.06Q2.43-15.03 2.38-16.96Q2.34-18.90 2.34-22.09L2.34-22.09Q2.34-26.01 2.41-27.97Q2.48-29.92 2.65-30.64Q2.83-31.36 3.24-31.50Z" transform="translate(-2.34, 37.17529411764706)"></path></g></g></g><g transform="translate(114.10624820709228, 0)"><g data-gra="path-name" transform="translate(0,15)"><g transform="scale(1)"><path d="M17.46-37.03L17.46-37.03Q18.09-37.35 18.45-36.92Q18.81-36.49 18.99-35.14L18.99-35.14Q19.13-34.06 19.37-33.48Q19.62-32.89 20.25-32.60Q20.88-32.31 22.25-32.24Q23.63-32.17 26.05-32.13L26.05-32.13Q28.66-32.09 29.90-31.99Q31.14-31.90 31.52-31.70Q31.90-31.50 31.90-31.05L31.90-31.05Q31.90-30.64 31.54-30.42Q31.18-30.20 30.08-30.11Q28.98-30.02 26.73-29.97L26.73-29.97Q23.89-29.92 22.30-29.79Q20.70-29.65 20.02-29.16Q19.35-28.66 19.19-27.54Q19.04-26.41 19.04-24.43L19.04-24.43Q19.04-22.41 19.19-21.26Q19.35-20.11 20.11-19.62Q20.88-19.13 22.63-18.99Q24.39-18.86 27.54-18.81L27.54-18.81Q30.33-18.77 31.68-18.68Q33.03-18.59 33.44-18.34Q33.84-18.09 33.75-17.59L33.75-17.59Q33.66-17.23 33.25-17.03Q32.85-16.83 31.63-16.76Q30.42-16.70 27.81-16.65L27.81-16.65Q25.43-16.61 24.23-16.54Q23.04-16.47 22.61-16.34Q22.18-16.20 22.00-15.93L22.00-15.93Q21.73-15.43 22.43-14.13Q23.13-12.82 24.55-11.03Q25.96-9.22 27.95-7.11Q29.92-5.00 32.27-2.88L32.27-2.88Q33.62-1.62 33.98-1.10Q34.34-0.58 34.11-0.22L34.11-0.22Q33.75 0.49 32.06-0.58Q30.38-1.67 27.72-4.27L27.72-4.27Q26.59-5.40 25.70-6.37Q24.79-7.33 23.74-8.62Q22.68-9.90 21.11-11.88L21.11-11.88Q20.29-12.87 19.87-13.28Q19.44-13.68 19.26-13.14Q19.08-12.60 19.01-10.87Q18.95-9.13 18.95-5.80L18.95-5.80Q18.95-2.65 18.90-0.79Q18.86 1.08 18.74 1.96Q18.63 2.83 18.43 3.10Q18.22 3.38 17.86 3.38L17.86 3.38Q17.50 3.38 17.30 3.10Q17.10 2.83 16.99 1.89Q16.88 0.94 16.83-0.97Q16.79-2.88 16.79-6.12L16.79-6.12Q16.79-9.36 16.74-11.03Q16.70-12.69 16.47-13.09Q16.25-13.50 15.68-12.89Q15.12-12.29 14.04-10.98L14.04-10.98Q11.88-8.28 9.86-6.12Q7.83-3.96 6.14-2.48Q4.46-0.99 3.33-0.45Q2.21 0.09 1.89-0.45L1.89-0.45Q1.67-0.85 2.07-1.40Q2.48-1.93 4.18-3.55L4.18-3.55Q7.25-6.34 9.54-8.93Q11.83-11.52 13.00-13.41Q14.17-15.30 13.81-15.93L13.81-15.93Q13.68-16.20 13.21-16.34Q12.73-16.47 11.56-16.54Q10.39-16.61 8.05-16.65L8.05-16.65Q5.44-16.70 4.21-16.76Q2.97-16.83 2.59-17.05Q2.21-17.28 2.21-17.68L2.21-17.68Q2.21-18.13 2.61-18.36Q3.01-18.59 4.30-18.68Q5.58-18.77 8.32-18.81L8.32-18.81Q11.07-18.86 12.67-18.97Q14.26-19.08 15.05-19.33Q15.84-19.57 16.16-20.11Q16.47-20.65 16.61-21.60L16.61-21.60Q16.70-22.23 16.72-23.33Q16.74-24.43 16.72-25.56Q16.70-26.68 16.56-27.31L16.56-27.31Q16.43-28.21 16.16-28.71Q15.88-29.20 15.19-29.47Q14.49-29.74 13.07-29.83Q11.65-29.92 9.18-29.97L9.18-29.97Q7.02-30.02 5.94-30.11Q4.86-30.20 4.52-30.42Q4.18-30.64 4.18-31.05L4.18-31.05Q4.18-31.50 4.54-31.70Q4.91-31.90 6.12-31.99Q7.33-32.09 9.86-32.13L9.86-32.13Q12.24-32.17 13.59-32.27Q14.94-32.35 15.55-32.65Q16.16-32.94 16.38-33.57Q16.61-34.20 16.79-35.32L16.79-35.32Q16.92-36.27 17.05-36.59Q17.19-36.90 17.46-37.03ZM27.63-28.13L27.63-28.13Q27.95-28.21 28.39-28.04L28.39-28.04Q28.98-27.72 28.80-26.82Q28.62-25.92 27.49-23.63L27.49-23.63Q26.23-21.11 25.61-20.36Q24.97-19.62 24.34-19.93L24.34-19.93Q23.89-20.16 23.80-20.47Q23.71-20.79 24.05-21.60Q24.39-22.41 25.20-24.12L25.20-24.12Q26.05-25.83 26.48-26.66Q26.91-27.49 27.16-27.79Q27.40-28.08 27.63-28.13ZM8.14-27.95L8.14-27.95Q8.69-28.17 9.16-27.72Q9.63-27.27 10.39-25.70L10.39-25.70Q11.88-22.77 12.06-21.46Q12.24-20.16 11.16-20.16L11.16-20.16Q10.75-20.16 10.46-20.50Q10.17-20.84 9.72-21.82L9.72-21.82Q8.78-23.85 8.26-25.02Q7.74-26.19 7.60-26.75Q7.47-27.31 7.63-27.54Q7.79-27.77 8.14-27.95Z" transform="translate(-1.8096428571428573, 37.17529411764706)"></path></g></g></g><g transform="translate(150.49314191000803, 0)"><g data-gra="path-name" transform="translate(0,15)"><g transform="scale(1)"><path d="M22.68-37.03L22.68-37.03Q23.09-37.26 23.51-36.88Q23.94-36.49 24.75-35.10L24.75-35.10Q26.14-32.67 27.27-31.00Q28.39-29.34 29.61-27.99Q30.82-26.64 32.49-25.06L32.49-25.06Q33.75-23.89 34.04-23.47Q34.34-23.04 34.11-22.63L34.11-22.63Q33.80-21.96 32.67-22.50Q31.54-23.04 29.70-24.70L29.70-24.70Q28.13-26.19 26.62-28.15Q25.11-30.11 24.01-32.04Q22.90-33.98 22.50-35.37Q22.09-36.77 22.68-37.03ZM12.42-36.45L12.42-36.45Q13.23-36.67 13.30-35.98Q13.37-35.28 12.87-33.93Q12.38-32.58 11.38-30.91Q10.39-29.25 9.04-27.54L9.04-27.54Q7.69-25.83 6.25-24.48Q4.81-23.13 3.69-22.48Q2.56-21.82 2.11-22.09L2.11-22.09Q1.57-22.45 1.91-23.06Q2.25-23.67 3.78-25.11L3.78-25.11Q5.31-26.55 6.41-27.83Q7.51-29.11 8.50-30.55Q9.49-31.99 10.57-33.88L10.57-33.88Q11.43-35.32 11.79-35.84Q12.15-36.36 12.42-36.45ZM12.51-25.65L12.51-25.65Q12.91-25.65 14.17-25.65Q15.43-25.65 17.12-25.65Q18.81-25.65 20.45-25.65Q22.09-25.65 23.27-25.63Q24.43-25.61 24.66-25.61L24.66-25.61Q26.14-25.52 26.68-25.29Q27.22-25.06 27.22-24.57L27.22-24.57Q27.22-23.98 26.41-23.83Q25.61-23.67 22.81-23.58L22.81-23.58Q20.20-23.54 18.65-23.45Q17.10-23.36 16.29-23.15Q15.48-22.95 15.10-22.54Q14.71-22.14 14.35-21.46L14.35-21.46Q14.13-20.97 13.86-20.16Q13.59-19.35 13.41-18.61Q13.23-17.86 13.18-17.46L13.18-17.46Q13.14-16.96 13.30-16.70Q13.46-16.43 14.20-16.29Q14.94-16.16 16.67-16.11Q18.40-16.06 21.51-15.97L21.51-15.97Q24.16-15.93 25.47-15.73Q26.77-15.52 27.27-15.03Q27.77-14.54 27.95-13.50L27.95-13.50Q28.13-12.51 28.01-10.53Q27.90-8.55 27.54-6.37Q27.18-4.18 26.68-2.43L26.68-2.43Q26.10-0.40 25.33 0.70Q24.57 1.80 23.36 2.18Q22.14 2.56 20.16 2.48L20.16 2.48Q17.77 2.38 16.92 2.00Q16.06 1.62 16.29 0.90L16.29 0.90Q16.47 0.40 17.01 0.32Q17.55 0.22 19.62 0.32L19.62 0.32Q21.64 0.40 22.75-0.09Q23.85-0.58 24.43-2.14Q25.02-3.69 25.43-6.79L25.43-6.79Q25.79-9.27 25.79-10.69Q25.79-12.11 25.06-12.76Q24.34-13.41 22.61-13.61Q20.88-13.81 17.77-13.86L17.77-13.86Q14.89-13.90 13.30-14.04Q11.70-14.17 11.09-14.67Q10.48-15.16 10.57-16.18Q10.66-17.19 11.16-18.99L11.16-18.99Q11.74-21.06 11.88-21.96Q12.01-22.86 11.63-23.13Q11.25-23.40 10.21-23.54L10.21-23.54Q9.27-23.71 9-23.92Q8.73-24.12 8.87-24.61L8.87-24.61Q9.04-25.11 9.81-25.36Q10.57-25.61 12.51-25.65Z" transform="translate(-1.7827734375, 37.17529411764706)"></path></g></g></g></g> <!----></g><mask id="8127490d-8c5e-4f19-af88-d66430c53bf3"><polyline data-gra="graph-name" fill-opacity="1" x="0" y="0" width="38.419341773986815" height="46.56828972311581" points="0,0 38.419341773986815,12 38.419341773986815,58.56828972311581 0,70.56828972311581 0,12" fill="white"></polyline> <g data-gra="path-name" transform="translate(2.999431476593017,15)" fill="black"><g transform="scale(1)"><path d="M23.63-37.08L23.63-37.08Q24.03-37.21 24.39-36.90Q24.75-36.59 25.33-35.55L25.33-35.55Q26.50-33.44 26.59-32.76L26.59-32.76Q26.64-32.53 26.71-32.45Q26.77-32.35 27.31-32.35Q27.86-32.35 29.16-32.31L29.16-32.31Q30.96-32.31 31.79-32.22Q32.63-32.13 32.85-31.90Q33.07-31.68 32.94-31.18L32.94-31.18Q32.85-30.73 32.38-30.49Q31.90-30.24 30.60-30.17Q29.29-30.11 26.68-30.06L26.68-30.06Q22.72-30.02 20.65-30.08Q18.59-30.15 17.82-30.46Q17.05-30.78 17.05-31.36L17.05-31.36Q17.05-31.95 17.77-32.13Q18.50-32.31 20.70-32.31L20.70-32.31Q22.59-32.31 23.18-32.49Q23.76-32.67 23.71-33.21L23.71-33.21Q23.67-33.44 23.56-33.73Q23.45-34.02 22.95-35.19L22.95-35.19Q22.36-36.72 23.63-37.08ZM12.96-36.49L12.96-36.49Q14.22-36.77 14.63-36.05L14.63-36.05Q14.85-35.59 14.54-35.26Q14.22-34.92 12.96-34.29L12.96-34.29Q11.70-33.66 11.12-33.16Q10.53-32.67 10.37-31.86Q10.21-31.05 10.21-29.43L10.21-29.43Q10.21-27.81 10.39-27.07Q10.57-26.32 11.25-26.08Q11.92-25.83 13.41-25.65L13.41-25.65Q14.67-25.52 15.05-25.29Q15.43-25.06 15.43-24.57L15.43-24.57Q15.43-24.03 15.03-23.85Q14.63-23.67 13.14-23.49L13.14-23.49Q11.79-23.36 11.16-23.06Q10.53-22.77 10.35-21.98Q10.17-21.20 10.17-19.57L10.17-19.57Q10.17-18.04 10.30-17.26Q10.44-16.47 10.93-16.16Q11.43-15.84 12.51-15.57L12.51-15.57Q13.50-15.34 14.04-15.03Q14.58-14.71 14.83-13.90Q15.07-13.09 15.14-11.41Q15.21-9.72 15.21-6.71L15.21-6.71Q15.21-3.82 15.16-2.41Q15.12-0.99 14.98-0.43Q14.85 0.14 14.58 0.40L14.58 0.40Q14.22 0.72 13.77 0.65Q13.32 0.58 13.05 0.14L13.05 0.14Q12.78-0.40 12.33-0.65Q11.88-0.90 11.00-0.97Q10.13-1.03 8.46-0.99L8.46-0.99Q6.79-0.94 6.03-0.79Q5.26-0.63 5.02-0.02Q4.77 0.58 4.54 2.02L4.54 2.02Q4.32 3.55 3.38 3.06L3.38 3.06Q3.01 2.83 2.81 2.21Q2.61 1.57 2.56-0.14Q2.52-1.84 2.52-5.26L2.52-5.26Q2.52-8.59 2.59-10.55Q2.65-12.51 2.88-13.50Q3.10-14.49 3.58-14.87Q4.05-15.25 4.91-15.43L4.91-15.43Q5.13-15.52 5.44-15.59Q5.76-15.66 5.98-15.71L5.98-15.71Q6.84-15.93 7.25-16.27Q7.65-16.61 7.79-17.39Q7.92-18.18 7.92-19.66L7.92-19.66Q7.92-21.46 7.72-22.23Q7.51-22.99 6.71-23.22Q5.89-23.45 4.05-23.54L4.05-23.54Q2.65-23.58 2.21-23.80Q1.75-24.03 1.80-24.70L1.80-24.70Q1.84-25.11 2.02-25.29Q2.21-25.47 2.90-25.54Q3.60-25.61 5.22-25.70L5.22-25.70Q6.48-25.79 7.04-26.01Q7.60-26.23 7.76-27.02Q7.92-27.81 7.92-29.47L7.92-29.47Q7.92-31.05 7.76-31.70Q7.60-32.35 6.95-32.42Q6.30-32.49 4.77-32.22L4.77-32.22Q3.19-31.95 2.75-32.06Q2.29-32.17 2.29-32.76L2.29-32.76Q2.29-33.21 2.56-33.48Q2.83-33.75 3.76-34.04Q4.68-34.34 6.52-34.78L6.52-34.78Q8.01-35.14 9.18-35.46Q10.35-35.77 11.43-36.09L11.43-36.09Q12.46-36.31 12.96-36.49ZM10.35-13.32L10.35-13.32Q10.13-13.37 9.65-13.37Q9.18-13.37 8.78-13.37L8.78-13.37Q6.93-13.37 6.08-13.09Q5.22-12.82 4.97-11.88Q4.72-10.93 4.68-8.87L4.68-8.87Q4.63-6.25 4.86-5.06Q5.08-3.87 5.98-3.55Q6.88-3.24 8.87-3.24L8.87-3.24Q10.89-3.24 11.81-3.67Q12.73-4.09 12.96-5.49Q13.18-6.88 13.00-9.81L13.00-9.81Q12.96-11.25 12.73-11.97Q12.51-12.69 11.97-12.96Q11.43-13.23 10.35-13.32ZM19.39-29.02L19.39-29.02Q20.07-29.25 20.47-28.75Q20.88-28.26 21.46-26.41L21.46-26.41Q22.23-24.07 22.18-23.13Q22.14-22.18 21.29-22.09L21.29-22.09Q20.88-22.05 20.61-22.21Q20.34-22.36 20.11-23.04Q19.89-23.71 19.44-25.20L19.44-25.20Q18.99-26.77 18.81-27.54Q18.63-28.30 18.79-28.60Q18.95-28.89 19.39-29.02ZM29.56-28.93L29.56-28.93Q29.79-29.07 30.15-29.02Q30.51-28.98 30.69-28.75L30.69-28.75Q31.00-28.48 30.85-27.70Q30.69-26.91 29.92-24.75L29.92-24.75Q29.34-23.09 29.23-22.36Q29.11-21.64 29.65-21.49Q30.20-21.33 31.63-21.29L31.63-21.29Q33.44-21.24 33.86-21.04Q34.29-20.84 34.20-20.16L34.20-20.16Q34.11-19.57 33.48-19.39Q32.85-19.21 30.51-19.13L30.51-19.13Q28.21-19.08 27.18-18.79Q26.14-18.50 25.92-17.59Q25.70-16.70 25.83-14.67L25.83-14.67Q25.92-13.59 26.17-13.09Q26.41-12.60 27.22-12.44Q28.04-12.29 29.79-12.20L29.79-12.20Q31.45-12.15 32.24-12.06Q33.03-11.97 33.25-11.77Q33.48-11.56 33.48-11.12L33.48-11.12Q33.48-10.53 32.98-10.33Q32.49-10.13 30.64-10.04L30.64-10.04Q28.84-9.99 27.86-9.81Q26.86-9.63 26.44-8.98Q26.01-8.32 25.90-6.79Q25.79-5.26 25.74-2.48L25.74-2.48Q25.70 0.18 25.61 1.46Q25.52 2.75 25.27 3.10Q25.02 3.46 24.48 3.38L24.48 3.38Q24.12 3.28 23.94 2.88Q23.76 2.48 23.69 1.28Q23.63 0.09 23.58-2.34L23.58-2.34Q23.54-5.22 23.45-6.77Q23.36-8.32 22.95-9Q22.54-9.67 21.64-9.83Q20.75-9.99 19.04-10.04L19.04-10.04Q17.41-10.13 16.99-10.28Q16.56-10.44 16.47-11.03L16.47-11.03Q16.43-11.74 16.99-11.95Q17.55-12.15 19.84-12.20L19.84-12.20Q21.51-12.29 22.25-12.44Q22.99-12.60 23.22-13.12Q23.45-13.63 23.49-14.76L23.49-14.76Q23.63-16.74 23.42-17.64Q23.22-18.54 22.30-18.81Q21.38-19.08 19.26-19.13L19.26-19.13Q17.10-19.21 16.54-19.42Q15.97-19.62 16.11-20.29L16.11-20.29Q16.20-20.70 16.49-20.88Q16.79-21.06 17.66-21.15Q18.54-21.24 20.34-21.29L20.34-21.29Q22.54-21.38 23.80-21.51Q25.06-21.64 25.79-22.12Q26.50-22.59 27.04-23.67Q27.58-24.75 28.35-26.64L28.35-26.64Q28.84-27.95 29.07-28.35Q29.29-28.75 29.56-28.93Z" transform="translate(-1.7963085937499998, 37.17529411764706)"></path></g></g></mask></svg>