<?xml version="1.0" standalone="no"?><!DOCTYPE svg PUBLIC "-//W3C//DTD SVG 1.1//EN" "http://www.w3.org/Graphics/SVG/1.1/DTD/svg11.dtd"><svg t="1676883502597" class="icon" viewBox="0 0 1024 1024" version="1.1" xmlns="http://www.w3.org/2000/svg" p-id="928" xmlns:xlink="http://www.w3.org/1999/xlink" width="128" height="128"><path d="M815.5 309h-458c-17.6 0-32-14.4-32-32s14.4-32 32-32h458c17.6 0 32 14.4 32 32s-14.4 32-32 32zM176.5 277a32 32 0 1 0 64 0 32 32 0 1 0-64 0zM815.5 544h-458c-17.6 0-32-14.4-32-32s14.4-32 32-32h458c17.6 0 32 14.4 32 32s-14.4 32-32 32zM176.5 512a32 32 0 1 0 64 0 32 32 0 1 0-64 0zM815.5 779h-458c-17.6 0-32-14.4-32-32s14.4-32 32-32h458c17.6 0 32 14.4 32 32s-14.4 32-32 32zM176.5 747a32 32 0 1 0 64 0 32 32 0 1 0-64 0z" p-id="929"></path></svg>