<?xml version="1.0" standalone="no"?><!DOCTYPE svg PUBLIC "-//W3C//DTD SVG 1.1//EN" "http://www.w3.org/Graphics/SVG/1.1/DTD/svg11.dtd"><svg t="1678427767809" class="icon" viewBox="0 0 1024 1024" version="1.1" xmlns="http://www.w3.org/2000/svg" p-id="6143" xmlns:xlink="http://www.w3.org/1999/xlink" width="128" height="128"><path d="M512 85.333333A426.666667 426.666667 0 1 1 85.333333 512 426.666667 426.666667 0 0 1 512 85.333333z m-85.333333 574.506667v182.826667a343.466667 343.466667 0 0 0 256-34.986667zM341.333333 512l-158.293333 91.306667a341.333333 341.333333 0 0 0 147.413333 197.76l10.88 6.613333z m512 0l-256 147.84 158.293334 91.306667A341.333333 341.333333 0 0 0 853.333333 525.226667z m-341.333333-98.773333l-85.333333 49.706666v98.773334l85.333333 49.066666 85.333333-49.706666v-98.773334z m-243.2-140.373334A341.333333 341.333333 0 0 0 170.666667 512l256-147.84zM682.666667 216.32V512l158.293333-91.306667A341.333333 341.333333 0 0 0 682.666667 216.32zM512 170.666667a339.413333 339.413333 0 0 0-170.666667 45.653333l256 147.84V181.333333a351.573333 351.573333 0 0 0-85.333333-10.666666z" p-id="6144"></path></svg>