<?xml version="1.0" standalone="no"?><!DOCTYPE svg PUBLIC "-//W3C//DTD SVG 1.1//EN" "http://www.w3.org/Graphics/SVG/1.1/DTD/svg11.dtd"><svg t="1679555929103" class="icon" viewBox="0 0 1152 1024" version="1.1" xmlns="http://www.w3.org/2000/svg" p-id="18297" xmlns:xlink="http://www.w3.org/1999/xlink" width="144" height="128"><path d="M581.973333 970.666667c253.312 0 458.666667-205.354667 458.666667-458.666667S835.285333 53.333333 581.973333 53.333333 123.306667 258.688 123.306667 512s205.354667 458.666667 458.666666 458.666667z m0-64c-217.962667 0-394.666667-176.704-394.666666-394.666667s176.704-394.666667 394.666666-394.666667 394.666667 176.704 394.666667 394.666667-176.704 394.666667-394.666667 394.666667z" p-id="18298"></path><path d="M131.434667 590.208C39.317333 674.709333-2.965333 740.736 25.088 789.333333c50.56 87.552 322.282667-1.322667 634.24-181.44C971.306667 427.776 1184.170667 236.906667 1133.632 149.333333c-31.637333-54.784-130.176-43.776-279.424 10.922667a32 32 0 1 0 22.037333 60.096c115.541333-42.346667 194.901333-51.221333 201.962667-39.018667-0.213333-0.362667-0.128 0.789333-1.130667 4.693334-1.813333 7.210667-6.570667 16.981333-14.293333 28.672-17.130667 25.813333-46.890667 58.090667-87.210667 94.229333-84.394667 75.712-208.469333 162.858667-348.202666 243.541333-139.733333 80.682667-277.269333 144.554667-385.024 179.797334-51.456 16.832-94.293333 26.453333-125.226667 28.373333-13.952 0.874667-24.810667 0.106667-31.978667-1.92-3.861333-1.109333-4.821333-1.749333-4.608-1.386667 0.213333 0.384 0.149333-0.554667 0.96-4.053333 1.557333-6.698667 5.802667-15.786667 12.8-26.730667 15.573333-24.341333 43.008-54.848 80.426667-89.173333a32 32 0 0 0-43.264-47.146667z" p-id="18299"></path></svg>