<?xml version="1.0" standalone="no"?><!DOCTYPE svg PUBLIC "-//W3C//DTD SVG 1.1//EN" "http://www.w3.org/Graphics/SVG/1.1/DTD/svg11.dtd"><svg t="1679305273592" class="icon" viewBox="0 0 1024 1024" version="1.1" xmlns="http://www.w3.org/2000/svg" p-id="23559" xmlns:xlink="http://www.w3.org/1999/xlink" width="128" height="128"><path d="M512 88.086c121.62 0 220.215 98.596 220.215 220.215 0 78.837-41.428 147.996-103.694 186.897 73.97 21.096 140.927 62.067 193.867 118.954a33.032 33.032 0 0 1-48.365 45.007C706.725 586.84 612.748 545.032 512 545.032c-197.638 0-357.85 160.212-357.85 357.85a33.032 33.032 0 0 1-66.064 0c0-193.707 129.927-357.073 307.387-407.695-62.266-38.901-103.688-108.054-103.688-186.886 0-121.62 98.596-220.215 220.215-220.215z m396.387 748.731a27.527 27.527 0 0 1 27.527 27.527v11.01a27.527 27.527 0 0 1-27.527 27.528H715.7a27.527 27.527 0 0 1-27.527-27.527v-11.01a27.527 27.527 0 0 1 27.527-27.528h192.688z m0-115.613a27.527 27.527 0 0 1 27.527 27.527v11.01a27.527 27.527 0 0 1-27.527 27.528H715.7a27.527 27.527 0 0 1-27.527-27.527v-11.01a27.527 27.527 0 0 1 27.527-27.528h192.688zM512 154.151c-85.135 0-154.15 69.015-154.15 154.15s69.015 154.15 154.15 154.15 154.15-69.015 154.15-154.15-69.015-154.15-154.15-154.15z" p-id="23560"></path></svg>