<?xml version="1.0" standalone="no"?><!DOCTYPE svg PUBLIC "-//W3C//DTD SVG 1.1//EN" "http://www.w3.org/Graphics/SVG/1.1/DTD/svg11.dtd"><svg t="1679649623560" class="icon" viewBox="0 0 1024 1024" version="1.1" xmlns="http://www.w3.org/2000/svg" p-id="7034" xmlns:xlink="http://www.w3.org/1999/xlink" width="128" height="128"><path d="M352 64H192a128 128 0 0 0-128 128v160a128 128 0 0 0 128 128h288V192a128 128 0 0 0-128-128zM416 608v224a64 64 0 0 1-64 64H192a64 64 0 0 1-64-64V672a64 64 0 0 1 64-64h224m64-64H192a128 128 0 0 0-128 128v160a128 128 0 0 0 128 128h160a128 128 0 0 0 128-128V544zM832 128a64 64 0 0 1 64 64v160a64 64 0 0 1-64 64H608V192a64 64 0 0 1 64-64h160m0-64H672a128 128 0 0 0-128 128v288h288a128 128 0 0 0 128-128V192a128 128 0 0 0-128-128zM832 608a64 64 0 0 1 64 64v160a64 64 0 0 1-64 64H672a64 64 0 0 1-64-64V608h224m0-64H544v288a128 128 0 0 0 128 128h160a128 128 0 0 0 128-128V672a128 128 0 0 0-128-128z" p-id="7035"></path></svg>