<?xml version="1.0" standalone="no"?><!DOCTYPE svg PUBLIC "-//W3C//DTD SVG 1.1//EN" "http://www.w3.org/Graphics/SVG/1.1/DTD/svg11.dtd"><svg t="1678288742653" class="icon" viewBox="0 0 1024 1024" version="1.1" xmlns="http://www.w3.org/2000/svg" p-id="9262" xmlns:xlink="http://www.w3.org/1999/xlink" width="128" height="128"><path d="M102.4 837.12l85.333333 85.333333H102.4z" p-id="9263"></path><path d="M358.4 939.52H102.4a17.066667 17.066667 0 0 1-17.066667-17.066667v-256-0.068266-0.0512-0.034134-0.017066-0.0512-0.0512a16.9984 16.9984 0 0 1 4.9664-11.758934l0.034134-0.034133 469.333333-469.333333 73.454933-72.6016c0.426667-0.426667 0.887467-0.8192 1.365334-1.211734 42.632533-33.962667 88.0128-33.979733 131.242666-0.068266a14.421333 14.421333 0 0 1 1.536 1.365333l145.92 145.92a16.964267 16.964267 0 0 1 1.3824 1.553067c33.297067 42.615467 33.006933 87.944533-0.8704 131.1232a16.8448 16.8448 0 0 1-1.365333 1.536l-541.866667 541.866666a17.032533 17.032533 0 0 1-11.793066 5.000534h-0.187734L358.4 939.52z m-163.601067-34.133333h122.402134L119.466667 707.652267v122.402133l75.332266 75.332267zM119.466667 905.386667h27.067733L119.466667 878.318933v27.067734z m178.5856-67.413334L358.4 898.321067l529.0496-529.0496c23.2448-30.1056 23.517867-57.941333 0.836267-87.4496l-144.401067-144.418134c-30.1056-23.210667-57.941333-23.1936-87.432533-0.017066l-72.721067 71.867733L126.532267 666.453333 187.733333 727.6544l457.2672-457.2672a17.0496 17.0496 0 1 1 24.132267 24.132267L211.8656 751.786667l62.0544 62.0544 457.2672-457.250134a17.0496 17.0496 0 1 1 24.132267 24.132267L298.052267 837.973333z" p-id="9264"></path><path d="M595.8656 172.970667l256 256-48.2816 48.264533-256-256z" p-id="9265"></path></svg>