<?xml version="1.0" standalone="no"?><!DOCTYPE svg PUBLIC "-//W3C//DTD SVG 1.1//EN" "http://www.w3.org/Graphics/SVG/1.1/DTD/svg11.dtd"><svg t="1683342251767" class="icon" viewBox="0 0 1024 1024" version="1.1" xmlns="http://www.w3.org/2000/svg" p-id="26280" xmlns:xlink="http://www.w3.org/1999/xlink" width="128" height="128"><path d="M717.7216 860.1088H392.96c-77.5168 0-140.544-63.0272-140.544-140.544V478.1568c0-39.2192 12.1344-76.6976 35.072-108.4928 0.8192-1.1264 1.6896-2.1504 2.6112-3.1744l140.0832-147.6608c17.152-22.784 42.1376-37.4272 70.5024-41.3696 29.0816-3.9936 57.8048 3.8912 80.7936 22.1696 45.312 36.0448 53.6576 100.6592 18.9952 147.0464l-28.416 37.9904 178.944-11.0592c43.5712-2.6624 84.992 14.4896 113.8688 47.104 28.8768 32.6144 40.9088 75.9296 32.9728 118.784-0.0512 0.2048-0.0512 0.3584-0.1024 0.512l-41.8304 205.4144c-12.4928 66.4576-70.5536 114.688-138.1888 114.688zM336.1792 407.1936a123.14112 123.14112 0 0 0-22.3232 70.912v241.408c0 43.6224 35.4816 79.104 79.104 79.104h324.7616c38.144 0 70.8096-27.1872 77.7728-64.7168 0.0512-0.2048 0.0512-0.3584 0.1024-0.512l41.8304-205.3632c4.352-24.0128-2.4064-48.2816-18.5856-66.6112a78.464 78.464 0 0 0-64.1024-26.5216l-222.6688 13.7728c-16.128 1.024-31.0272-7.2192-38.7584-21.504s-6.4512-31.232 3.2256-44.2368l54.6304-73.0624a44.71808 44.71808 0 0 0-8.0384-62.1568 44.6464 44.6464 0 0 0-34.1504-9.3696 44.7488 44.7488 0 0 0-30.3616 18.2272c-0.8192 1.1264-1.6896 2.1504-2.6112 3.1744l-139.8272 147.456z" fill="#474747" p-id="26281"></path><path d="M166.9632 839.1168c-16.9472 0-30.72-13.7728-30.72-30.72V418.4064c0-16.9472 13.7728-30.72 30.72-30.72s30.72 13.7728 30.72 30.72v389.9904c0 16.9984-13.7728 30.72-30.72 30.72z" fill="#45CFFF" p-id="26282"></path></svg>