<?xml version="1.0" standalone="no"?><!DOCTYPE svg PUBLIC "-//W3C//DTD SVG 1.1//EN" "http://www.w3.org/Graphics/SVG/1.1/DTD/svg11.dtd"><svg t="1677145518326" class="icon" viewBox="0 0 1024 1024" version="1.1" xmlns="http://www.w3.org/2000/svg" p-id="5873" xmlns:xlink="http://www.w3.org/1999/xlink" width="128" height="128"><path d="M960 771.200582 960 252.79942C949.66048 254.898232 938.958906 256 928 256 839.634438 256 768 184.36556 768 96 768 85.041093 769.101766 74.339518 771.200582 64L252.79942 64C254.898232 74.339518 256 85.041093 256 96 256 184.36556 184.36556 256 96 256 85.041093 256 74.339518 254.898232 64 252.79942L64 771.200582C74.339518 769.101766 85.041093 768 96 768 184.36556 768 256 839.634438 256 928 256 938.958906 254.898232 949.66048 252.79942 960L771.200582 960C769.101766 949.66048 768 938.958906 768 928 768 839.634438 839.634438 768 928 768 938.958906 768 949.66048 769.101766 960 771.200582ZM96 192C149.019336 192 192 149.019336 192 96 192 42.980664 149.019336 0 96 0 42.980664 0 0 42.980664 0 96 0 149.019336 42.980664 192 96 192ZM96 1024C149.019336 1024 192 981.019334 192 928 192 874.980666 149.019336 832 96 832 42.980664 832 0 874.980666 0 928 0 981.019334 42.980664 1024 96 1024ZM928 192C981.019334 192 1024 149.019336 1024 96 1024 42.980664 981.019334 0 928 0 874.980666 0 832 42.980664 832 96 832 149.019336 874.980666 192 928 192ZM928 1024C981.019334 1024 1024 981.019334 1024 928 1024 874.980666 981.019334 832 928 832 874.980666 832 832 874.980666 832 928 832 981.019334 874.980666 1024 928 1024Z" p-id="5874"></path></svg>