<?xml version="1.0" standalone="no"?><!DOCTYPE svg PUBLIC "-//W3C//DTD SVG 1.1//EN" "http://www.w3.org/Graphics/SVG/1.1/DTD/svg11.dtd"><svg t="1678263845111" class="icon" viewBox="0 0 1024 1024" version="1.1" xmlns="http://www.w3.org/2000/svg" p-id="5032" xmlns:xlink="http://www.w3.org/1999/xlink" width="128" height="128"><path d="M512 62C263.27304688 62 62 263.27304688 62 512s201.27304688 450 450 450 450-201.27304688 450-450S760.72695312 62 512 62z m229.09130859 373.90869141L495.63652344 681.36347656c-4.90957031 4.90957031-11.45478516 8.18261719-18.81826172 8.18261719-9 1.63564453-18-0.81914063-24.54521485-7.36435547L297.63652344 526.72695312a27.16347656 27.16347656 0 0 1 0-38.45390624l13.09042969-13.0913086c10.63652344-10.63652344 27.81826172-10.63652344 38.45478515 0l124.36347656 124.36347656 215.18261719-215.18173828c10.63564453-10.63652344 27.81738281-10.63652344 38.45390625 0l13.90957031 13.0913086c10.63564453 10.63652344 10.63564453 27.81738281 0 38.45390625z" p-id="5033"></path></svg>