<?xml version="1.0" standalone="no"?><!DOCTYPE svg PUBLIC "-//W3C//DTD SVG 1.1//EN" "http://www.w3.org/Graphics/SVG/1.1/DTD/svg11.dtd"><svg t="1677908566591" class="icon" viewBox="0 0 1024 1024" version="1.1" xmlns="http://www.w3.org/2000/svg" p-id="2822" xmlns:xlink="http://www.w3.org/1999/xlink" width="128" height="128"><path d="M64 64h192v192H64z" p-id="2823"></path><path d="M448 64h192v192H448z" opacity=".6" p-id="2824"></path><path d="M256 256h192v192H256z" opacity=".8" p-id="2825"></path><path d="M640 256h192v192h-192z" opacity=".4" p-id="2826"></path><path d="M832 64h192v192h-192z" opacity=".2" p-id="2827"></path><path d="M64 448h192v192H64z" p-id="2828"></path><path d="M448 448h192v192H448z" opacity=".6" p-id="2829"></path><path d="M256 640h192v192H256z" opacity=".8" p-id="2830"></path><path d="M640 640h192v192h-192z" opacity=".4" p-id="2831"></path><path d="M832 448h192v192h-192z" opacity=".2" p-id="2832"></path><path d="M64 832h192v192H64z" p-id="2833"></path><path d="M448 832h192v192H448z" opacity=".6" p-id="2834"></path><path d="M832 832h192v192h-192z" opacity=".2" p-id="2835"></path></svg>