<?xml version="1.0" standalone="no"?><!DOCTYPE svg PUBLIC "-//W3C//DTD SVG 1.1//EN" "http://www.w3.org/Graphics/SVG/1.1/DTD/svg11.dtd"><svg t="1683338930448" class="icon" viewBox="0 0 1024 1024" version="1.1" xmlns="http://www.w3.org/2000/svg" p-id="26265" xmlns:xlink="http://www.w3.org/1999/xlink" width="128" height="128"><path d="M516.6592 947.2c-313.4976 0-435.6608-75.3152-435.6608-268.6464 0-168.96 122.4192-280.8832 237.7728-349.0304q-17.8176-21.1456-36.3008-44.9536c-36.4032-44.6976-45.7216-94.6688-25.6-137.1136 20.48-43.5712 67.84-69.5808 126.0544-69.5808h272.128c50.8928 0 93.0816 25.6 112.64 68.2496 20.48 44.7488 11.9296 99.584-22.272 139.7248a2303.232 2303.232 0 0 1-39.8848 45.7728c125.184 81.5104 242.0224 213.6576 242.0224 345.6 0 96.9216-30.72 162.0992-96.256 205.1072C783.9744 926.72 677.5808 947.2 516.6592 947.2zM382.9248 139.3664C349.5424 139.3664 322.56 152.576 312.32 174.08c-9.6256 20.224-3.072 46.5408 17.8688 72.192l0.512 0.6144c20.48 26.1632 40.0384 49.92 58.7776 70.6048a30.72 30.72 0 0 1-8.3968 47.7696c-108.9024 57.6-238.7456 158.72-238.7456 313.5488 0 134.3488 59.648 207.2064 374.2208 207.2064 309.1456 0 369.6128-76.4416 369.6128-208.5376 0-101.2736-100.2496-229.6832-243.8144-312.32a30.72 30.72 0 0 1-6.912-47.7184c18.944-20.0704 39.68-43.3152 63.3856-71.2192 18.688-21.9648 23.9104-51.2 13.2608-74.1376-9.6768-20.992-29.952-32.5632-57.0368-32.5632z" fill="#3D3937" p-id="26266"></path><path d="M654.9504 602.6752v-38.0928a21.4528 21.4528 0 0 0-21.4016-21.4528h-37.2224l39.3728-36.608a21.4528 21.4528 0 0 0 1.0752-30.3104l-25.9584-27.904a21.504 21.504 0 0 0-30.3104-1.0752l-76.2368 70.9632L428.032 447.232a21.504 21.504 0 0 0-30.3104 1.0752L371.7632 476.16a21.504 21.504 0 0 0 1.0752 30.3104l39.3728 36.608h-37.2224a21.4528 21.4528 0 0 0-21.4016 21.4528v38.0928a21.4016 21.4016 0 0 0 21.4016 21.4528h88.7808v38.656H374.9888a21.4016 21.4016 0 0 0-21.4016 21.4528v38.0928a21.4528 21.4528 0 0 0 21.4016 21.4528h88.7808v36.4544a21.4528 21.4528 0 0 0 21.4528 21.4016h38.0928a21.4016 21.4016 0 0 0 21.4528-21.4016v-36.4544h88.7808a21.4528 21.4528 0 0 0 21.4016-21.4528v-38.0928a21.4016 21.4016 0 0 0-21.4016-21.4528H544.768v-38.6048h88.7808a21.4016 21.4016 0 0 0 21.4016-21.4528z" fill="#73CAFF" p-id="26267"></path></svg>